<svg width="311" height="157" viewBox="0 0 311 157" fill="none" xmlns="http://www.w3.org/2000/svg">
<path d="M0.53125 113V40.375C1.11458 34.1042 3.30208 27.7604 7.09375 21.3438C15.5521 7.63542 27.7292 0.78125 43.625 0.78125V25.0625C39.3958 25.2083 35.6042 26.5208 32.25 29C27.2917 32.9375 24.8125 37.8958 24.8125 43.875V113C24.9583 118.542 27.2917 123.208 31.8125 127C36.0417 130.208 39.9792 131.812 43.625 131.812V156.094C36.7708 156.094 29.625 153.979 22.1875 149.75C7.75 141.583 0.53125 129.333 0.53125 113ZM54.7812 156.094V131.812C56.3854 131.812 58.4271 131.01 60.9062 129.406C67.6146 125.177 70.9688 119.854 70.9688 113.438V100.312H54.7812V77.7812H95.6875V116.5C95.5417 125.104 91.1667 133.781 82.5625 142.531C73.375 151.427 64.1146 155.948 54.7812 156.094ZM54.7812 25.0625V0.78125C64.4062 0.78125 73.375 4.57292 81.6875 12.1562C91.0208 20.9062 95.6875 30.8958 95.6875 42.125L71.625 50.875V43.875C71.3333 39.6458 70.1667 35.9271 68.125 32.7188C64.625 27.7604 60.1771 25.2083 54.7812 25.0625ZM112.312 155V1.875H136.812V155H112.312ZM148.188 155V130.719C164.958 130.719 173.49 124.594 173.781 112.344C173.781 112.198 173.781 112.052 173.781 111.906V44.9688C173.781 36.2188 168.896 30.4583 159.125 27.6875C155.771 26.6667 152.125 26.1562 148.188 26.1562V1.875C166.854 1.875 180.781 8 189.969 20.25C195.365 27.5417 198.062 35.7812 198.062 44.9688V111.906C198.062 132.177 188.51 145.448 169.406 151.719C162.844 153.906 155.771 155 148.188 155ZM215.125 113V40.375C215.708 34.1042 217.896 27.7604 221.688 21.3438C230.146 7.63542 242.323 0.78125 258.219 0.78125V25.0625C253.99 25.2083 250.198 26.5208 246.844 29C241.885 32.9375 239.406 37.8958 239.406 43.875V113C239.552 118.542 241.885 123.208 246.406 127C250.635 130.208 254.573 131.812 258.219 131.812V156.094C251.365 156.094 244.219 153.979 236.781 149.75C222.344 141.583 215.125 129.333 215.125 113ZM269.375 156.094V131.812C270.979 131.812 273.021 131.01 275.5 129.406C282.208 125.177 285.562 119.854 285.562 113.438V100.312H269.375V77.7812H310.281V116.5C310.135 125.104 305.76 133.781 297.156 142.531C287.969 151.427 278.708 155.948 269.375 156.094ZM269.375 25.0625V0.78125C279 0.78125 287.969 4.57292 296.281 12.1562C305.615 20.9062 310.281 30.8958 310.281 42.125L286.219 50.875V43.875C285.927 39.6458 284.76 35.9271 282.719 32.7188C279.219 27.7604 274.771 25.2083 269.375 25.0625Z" fill="black"/>
</svg>
